<svg width="248" height="23" viewBox="0 0 248 23" fill="none" xmlns="http://www.w3.org/2000/svg">
<g clip-path="url(#clip0_1_1040)">
<path d="M247.986 9.64988C247.986 9.09832 247.938 8.3789 247.842 7.51559C247.77 6.65228 247.65 5.88489 247.506 5.21343C247.338 4.44604 246.978 3.82254 246.427 3.29496C245.875 2.76739 245.228 2.47962 244.484 2.38369C242.182 2.1199 238.681 2 234.005 2C229.329 2 225.827 2.1199 223.525 2.38369C222.782 2.47962 222.134 2.76739 221.583 3.29496C221.031 3.82254 220.671 4.44604 220.504 5.21343C220.336 5.88489 220.24 6.65228 220.144 7.51559C220.072 8.3789 220.024 9.09832 220 9.64988C220 10.2254 220 10.9928 220 12C220 13.0072 220 13.7746 220.024 14.3501C220.024 14.9017 220.072 15.6211 220.168 16.4844C220.216 17.3477 220.336 18.1151 220.48 18.7866C220.647 19.554 221.007 20.1775 221.559 20.705C222.11 21.2326 222.758 21.5204 223.501 21.6163C225.803 21.8801 229.305 22 233.981 22C238.657 22 242.158 21.8801 244.46 21.6163C245.204 21.5444 245.851 21.2326 246.403 20.705C246.954 20.1775 247.314 19.554 247.482 18.7866C247.65 18.1151 247.746 17.3477 247.842 16.4844C247.914 15.6211 247.962 14.9017 247.986 14.3501C247.986 13.7986 248.01 13.0072 248.01 12C248.01 10.9928 248.01 10.2254 247.986 9.64988ZM239.544 12.8393L231.535 17.8513C231.391 17.9472 231.223 18.0192 231.007 18.0192C230.839 18.0192 230.695 17.9712 230.528 17.8993C230.192 17.7074 230 17.4197 230 17.012V7.01199C230 6.60432 230.168 6.31655 230.528 6.1247C230.887 5.93285 231.223 5.95683 231.535 6.14868L235.54 8.65468L239.544 11.1607C239.856 11.3285 240.024 11.6163 240.024 12C240 12.3837 239.856 12.6715 239.544 12.8393Z" fill="black"/>
</g>
<g clip-path="url(#clip1_1_1040)">
<path d="M167.216 7.14941H162.276V22H167.216V7.14941Z" fill="black"/>
<path d="M183.438 8.50559C182.404 7.37916 181.025 6.80444 179.325 6.80444C178.704 6.80444 178.13 6.87341 177.601 7.03433C177.096 7.19525 176.659 7.40214 176.292 7.67801C175.947 7.95387 175.648 8.20674 175.442 8.45962C175.235 8.6895 175.051 8.94237 174.867 9.24123V7.12628H169.95L169.973 7.83893C169.973 8.32168 169.996 9.79295 169.996 12.2757C169.996 14.7585 169.996 17.9769 169.973 21.9769H174.89V13.701C174.89 13.1952 174.936 12.7815 175.051 12.4826C175.258 11.9769 175.579 11.5401 175.993 11.1952C176.407 10.8504 176.935 10.6895 177.578 10.6895C178.429 10.6895 179.072 10.9884 179.463 11.5861C179.876 12.1838 180.06 13.0113 180.06 14.0458V21.9769H184.977V13.4711C185 11.2872 184.494 9.63203 183.438 8.50559Z" fill="black"/>
<path d="M164.78 0C163.953 0 163.287 0.252874 162.781 0.735632C162.253 1.21839 162 1.81609 162 2.55172C162 3.28736 162.253 3.88506 162.758 4.39081C163.264 4.87356 163.907 5.12644 164.734 5.12644H164.757C165.607 5.12644 166.274 4.87356 166.779 4.39081C167.285 3.90805 167.537 3.28736 167.537 2.55172C167.537 1.81609 167.262 1.1954 166.779 0.712644C166.274 0.252874 165.607 0 164.78 0Z" fill="black"/>
</g>
<g clip-path="url(#clip2_1_1040)">
<path d="M24.999 4.3741C24.0253 4.78177 23.0273 5.04556 22.0536 5.16547C23.1733 4.51799 23.9036 3.58273 24.3174 2.38369C23.295 2.95923 22.1996 3.36691 21.0555 3.58273C20.0331 2.52758 18.7916 2 17.3067 2C15.8948 2 14.6777 2.5036 13.6797 3.48681C12.6816 4.47002 12.1704 5.66906 12.1704 7.05995C12.1704 7.44365 12.2191 7.82734 12.2921 8.21103C10.1986 8.11511 8.22688 7.58753 6.40117 6.65228C4.57546 5.71703 3.01753 4.47002 1.72736 2.93525C1.26485 3.72662 1.02142 4.56595 1.02142 5.47722C1.02142 6.34053 1.21617 7.15588 1.62999 7.8753C2.04382 8.6187 2.6037 9.21823 3.2853 9.67386C2.45765 9.64988 1.67868 9.43405 0.972738 9.02638V9.09832C0.972738 10.3213 1.36222 11.3765 2.14119 12.3118C2.92016 13.223 3.89387 13.8225 5.08666 14.0623C4.64849 14.1823 4.18598 14.2302 3.74781 14.2302C3.4557 14.2302 3.13924 14.2062 2.7741 14.1583C3.09056 15.1655 3.69913 16.0048 4.57546 16.6523C5.4518 17.2998 6.44986 17.6355 7.56962 17.6595C5.71957 19.0983 3.57741 19.8177 1.21617 19.8177C0.753654 19.8177 0.339827 19.7938 -0.0253143 19.7458C2.36028 21.2566 4.98929 22 7.83739 22C9.6631 22 11.3671 21.7122 12.9737 21.1607C14.5803 20.5851 15.9435 19.8417 17.0633 18.8825C18.1831 17.9233 19.1811 16.8201 19.9844 15.5971C20.8121 14.3501 21.4206 13.0552 21.8101 11.7122C22.1996 10.3693 22.4187 9.0024 22.4187 7.65947C22.4187 7.3717 22.4187 7.15588 22.3944 7.01199C23.4411 6.26858 24.2931 5.40528 24.999 4.3741Z" fill="black"/>
</g>
<g clip-path="url(#clip3_1_1040)">
<path d="M66.6467 7.21043V5.3054C66.6467 5.01862 66.6667 4.7933 66.6866 4.64991C66.7066 4.48603 66.7665 4.34264 66.8663 4.19925C66.9661 4.05587 67.1058 3.95344 67.3054 3.89199C67.505 3.83054 67.7844 3.81006 68.1238 3.81006H69.98V0H67.006C65.2894 0 64.0719 0.409683 63.3333 1.24953C62.5948 2.08939 62.2156 3.29795 62.2156 4.93669V7.21043H60V11H62.2156V22H66.6467V11H69.6008L70 7.21043H66.6467Z" fill="black"/>
</g>
<g clip-path="url(#clip4_1_1040)">
<path d="M120.93 1H111.07C107.717 1 105 3.71746 105 7.06953V16.9305C105 20.2825 107.717 23 111.07 23H120.93C124.283 23 127 20.2825 127 16.9305V7.06953C127 3.71746 124.283 1 120.93 1ZM125.047 16.9305C125.047 19.2086 123.192 21.0473 120.93 21.0473H111.07C108.791 21.0473 106.953 19.1923 106.953 16.9305V7.06953C106.953 4.80769 108.808 2.95266 111.07 2.95266H120.93C123.209 2.95266 125.047 4.80769 125.047 7.06953V16.9305Z" fill="black"/>
<path d="M116 6.33716C112.876 6.33716 110.321 8.87562 110.321 11.9999C110.321 15.1241 112.859 17.6789 116 17.6789C119.124 17.6789 121.679 15.1404 121.679 11.9999C121.679 8.87562 119.124 6.33716 116 6.33716ZM116 15.7262C113.95 15.7262 112.274 14.0664 112.274 12.0162C112.29 9.94958 113.95 8.28982 116 8.28982C118.05 8.28982 119.726 9.94958 119.726 11.9999C119.726 14.0502 118.05 15.7262 116 15.7262Z" fill="black"/>
<path d="M121.907 4.67749C121.533 4.67749 121.158 4.82394 120.898 5.10057C120.638 5.36092 120.475 5.73518 120.475 6.10944C120.475 6.4837 120.621 6.85796 120.898 7.11832C121.158 7.37867 121.533 7.5414 121.907 7.5414C122.281 7.5414 122.655 7.39495 122.916 7.11832C123.176 6.85796 123.339 6.4837 123.339 6.10944C123.339 5.73518 123.192 5.36092 122.916 5.10057C122.655 4.82394 122.297 4.67749 121.907 4.67749Z" fill="black"/>
</g>
<defs>
<clipPath id="clip0_1_1040">
<rect width="28.0096" height="20" fill="white" transform="translate(220 2)"/>
</clipPath>
<clipPath id="clip1_1_1040">
<rect width="23" height="22" fill="white" transform="translate(162)"/>
</clipPath>
<clipPath id="clip2_1_1040">
<rect width="25" height="20" fill="white" transform="translate(0 2)"/>
</clipPath>
<clipPath id="clip3_1_1040">
<rect width="10" height="22" fill="white" transform="translate(60)"/>
</clipPath>
<clipPath id="clip4_1_1040">
<rect width="22" height="22" fill="white" transform="translate(105 1)"/>
</clipPath>
</defs>
</svg>
